<mxfile host="Electron" agent="Mozilla/5.0 (Windows NT 10.0; Win64; x64) AppleWebKit/537.36 (KHTML, like Gecko) draw.io/27.0.9 Chrome/134.0.6998.205 Electron/35.4.0 Safari/537.36" version="27.0.9">
  <diagram name="Página-1" id="xfVjY4Fy1JKBWS82iwN9">
    <mxGraphModel dx="1303" dy="783" grid="1" gridSize="10" guides="1" tooltips="1" connect="1" arrows="1" fold="1" page="1" pageScale="1" pageWidth="827" pageHeight="1169" math="0" shadow="0">
      <root>
        <mxCell id="0" />
        <mxCell id="1" parent="0" />
        <mxCell id="B0Yh4iV38J5QAPyJT024-70" value="" style="rounded=1;whiteSpace=wrap;html=1;absoluteArcSize=1;arcSize=14;strokeWidth=2;" vertex="1" parent="1">
          <mxGeometry x="770" y="380" width="1780" height="620" as="geometry" />
        </mxCell>
        <mxCell id="B0Yh4iV38J5QAPyJT024-2" value="¿El Usuario está registrado?" style="strokeWidth=2;html=1;shape=mxgraph.flowchart.decision;whiteSpace=wrap;" vertex="1" parent="1">
          <mxGeometry x="1340" y="765" width="120" height="100" as="geometry" />
        </mxCell>
        <mxCell id="B0Yh4iV38J5QAPyJT024-4" value="" style="edgeStyle=orthogonalEdgeStyle;rounded=0;orthogonalLoop=1;jettySize=auto;html=1;entryX=1;entryY=0.55;entryDx=0;entryDy=0;entryPerimeter=0;" edge="1" parent="1" source="B0Yh4iV38J5QAPyJT024-5" target="B0Yh4iV38J5QAPyJT024-2">
          <mxGeometry relative="1" as="geometry">
            <mxPoint x="1480" y="815" as="targetPoint" />
            <Array as="points">
              <mxPoint x="1460" y="815" />
            </Array>
          </mxGeometry>
        </mxCell>
        <mxCell id="B0Yh4iV38J5QAPyJT024-5" value="Inicio" style="html=1;dashed=0;whiteSpace=wrap;shape=mxgraph.dfd.start" vertex="1" parent="1">
          <mxGeometry x="1590" y="795" width="100" height="40" as="geometry" />
        </mxCell>
        <mxCell id="B0Yh4iV38J5QAPyJT024-6" style="edgeStyle=orthogonalEdgeStyle;rounded=0;orthogonalLoop=1;jettySize=auto;html=1;exitX=0;exitY=0.5;exitDx=0;exitDy=0;exitPerimeter=0;entryX=1;entryY=0.5;entryDx=0;entryDy=0;" edge="1" parent="1" target="B0Yh4iV38J5QAPyJT024-43" source="B0Yh4iV38J5QAPyJT024-2">
          <mxGeometry relative="1" as="geometry">
            <mxPoint x="1230" y="815" as="targetPoint" />
            <mxPoint x="1320" y="815" as="sourcePoint" />
          </mxGeometry>
        </mxCell>
        <mxCell id="B0Yh4iV38J5QAPyJT024-7" value="Si" style="edgeLabel;html=1;align=center;verticalAlign=middle;resizable=0;points=[];" vertex="1" connectable="0" parent="B0Yh4iV38J5QAPyJT024-6">
          <mxGeometry x="-0.2052" y="-1" relative="1" as="geometry">
            <mxPoint as="offset" />
          </mxGeometry>
        </mxCell>
        <mxCell id="B0Yh4iV38J5QAPyJT024-12" style="edgeStyle=orthogonalEdgeStyle;rounded=0;orthogonalLoop=1;jettySize=auto;html=1;exitX=0.5;exitY=0;exitDx=0;exitDy=0;exitPerimeter=0;entryX=0.5;entryY=1;entryDx=0;entryDy=0;" edge="1" parent="1" source="B0Yh4iV38J5QAPyJT024-2" target="B0Yh4iV38J5QAPyJT024-39">
          <mxGeometry relative="1" as="geometry">
            <mxPoint x="1400" y="725" as="sourcePoint" />
            <mxPoint x="1400" y="615" as="targetPoint" />
            <Array as="points">
              <mxPoint x="1400" y="690" />
              <mxPoint x="1401" y="570" />
            </Array>
          </mxGeometry>
        </mxCell>
        <mxCell id="B0Yh4iV38J5QAPyJT024-13" value="No" style="edgeLabel;html=1;align=center;verticalAlign=middle;resizable=0;points=[];" vertex="1" connectable="0" parent="B0Yh4iV38J5QAPyJT024-12">
          <mxGeometry x="-0.1018" y="-1" relative="1" as="geometry">
            <mxPoint as="offset" />
          </mxGeometry>
        </mxCell>
        <mxCell id="B0Yh4iV38J5QAPyJT024-14" value="" style="edgeStyle=orthogonalEdgeStyle;rounded=0;orthogonalLoop=1;jettySize=auto;html=1;exitX=1;exitY=0.5;exitDx=0;exitDy=0;" edge="1" parent="1" source="B0Yh4iV38J5QAPyJT024-39" target="B0Yh4iV38J5QAPyJT024-16">
          <mxGeometry relative="1" as="geometry">
            <mxPoint x="1720" y="540" as="sourcePoint" />
          </mxGeometry>
        </mxCell>
        <mxCell id="B0Yh4iV38J5QAPyJT024-15" value="" style="edgeStyle=orthogonalEdgeStyle;rounded=0;orthogonalLoop=1;jettySize=auto;html=1;entryX=0;entryY=0.5;entryDx=0;entryDy=0;entryPerimeter=0;" edge="1" parent="1" source="B0Yh4iV38J5QAPyJT024-16" target="B0Yh4iV38J5QAPyJT024-63">
          <mxGeometry relative="1" as="geometry">
            <mxPoint x="2040" y="540" as="targetPoint" />
          </mxGeometry>
        </mxCell>
        <mxCell id="B0Yh4iV38J5QAPyJT024-16" value="Ingresar datos personales" style="whiteSpace=wrap;html=1;strokeWidth=2;" vertex="1" parent="1">
          <mxGeometry x="1820" y="510" width="120" height="60" as="geometry" />
        </mxCell>
        <mxCell id="B0Yh4iV38J5QAPyJT024-17" style="edgeStyle=orthogonalEdgeStyle;rounded=0;orthogonalLoop=1;jettySize=auto;html=1;exitX=0.5;exitY=1;exitDx=0;exitDy=0;entryX=1;entryY=0.5;entryDx=0;entryDy=0;exitPerimeter=0;" edge="1" parent="1" target="B0Yh4iV38J5QAPyJT024-22" source="B0Yh4iV38J5QAPyJT024-63">
          <mxGeometry relative="1" as="geometry">
            <mxPoint x="2095" y="588" as="sourcePoint" />
          </mxGeometry>
        </mxCell>
        <mxCell id="B0Yh4iV38J5QAPyJT024-18" value="No" style="edgeLabel;html=1;align=center;verticalAlign=middle;resizable=0;points=[];" vertex="1" connectable="0" parent="B0Yh4iV38J5QAPyJT024-17">
          <mxGeometry x="-0.1671" y="1" relative="1" as="geometry">
            <mxPoint as="offset" />
          </mxGeometry>
        </mxCell>
        <mxCell id="B0Yh4iV38J5QAPyJT024-19" value="" style="edgeStyle=orthogonalEdgeStyle;rounded=0;orthogonalLoop=1;jettySize=auto;html=1;" edge="1" parent="1" target="B0Yh4iV38J5QAPyJT024-24">
          <mxGeometry relative="1" as="geometry">
            <mxPoint x="2150" y="540" as="sourcePoint" />
          </mxGeometry>
        </mxCell>
        <mxCell id="B0Yh4iV38J5QAPyJT024-20" value="Si" style="edgeLabel;html=1;align=center;verticalAlign=middle;resizable=0;points=[];" vertex="1" connectable="0" parent="B0Yh4iV38J5QAPyJT024-19">
          <mxGeometry x="-0.0293" relative="1" as="geometry">
            <mxPoint as="offset" />
          </mxGeometry>
        </mxCell>
        <mxCell id="B0Yh4iV38J5QAPyJT024-21" style="edgeStyle=orthogonalEdgeStyle;rounded=0;orthogonalLoop=1;jettySize=auto;html=1;exitX=0;exitY=0;exitDx=0;exitDy=0;entryX=1;entryY=1;entryDx=0;entryDy=0;" edge="1" parent="1" source="B0Yh4iV38J5QAPyJT024-22" target="B0Yh4iV38J5QAPyJT024-16">
          <mxGeometry relative="1" as="geometry" />
        </mxCell>
        <mxCell id="B0Yh4iV38J5QAPyJT024-22" value="Corregir/completar datos" style="html=1;dashed=0;whiteSpace=wrap;" vertex="1" parent="1">
          <mxGeometry x="1940" y="635" width="100" height="50" as="geometry" />
        </mxCell>
        <mxCell id="B0Yh4iV38J5QAPyJT024-68" value="" style="edgeStyle=orthogonalEdgeStyle;rounded=0;orthogonalLoop=1;jettySize=auto;html=1;" edge="1" parent="1" source="B0Yh4iV38J5QAPyJT024-24" target="B0Yh4iV38J5QAPyJT024-40">
          <mxGeometry relative="1" as="geometry" />
        </mxCell>
        <mxCell id="B0Yh4iV38J5QAPyJT024-24" value="Validación de datos" style="whiteSpace=wrap;html=1;strokeWidth=2;" vertex="1" parent="1">
          <mxGeometry x="2260" y="510" width="120" height="60" as="geometry" />
        </mxCell>
        <mxCell id="B0Yh4iV38J5QAPyJT024-39" value="Completar formulario de registro" style="shape=parallelogram;html=1;strokeWidth=2;perimeter=parallelogramPerimeter;whiteSpace=wrap;rounded=1;arcSize=12;size=0.23;" vertex="1" parent="1">
          <mxGeometry x="1275" y="410" width="250" height="60" as="geometry" />
        </mxCell>
        <mxCell id="B0Yh4iV38J5QAPyJT024-40" value="Cargar datos" style="strokeWidth=2;html=1;shape=mxgraph.flowchart.database;whiteSpace=wrap;" vertex="1" parent="1">
          <mxGeometry x="2440" y="500" width="80" height="80" as="geometry" />
        </mxCell>
        <mxCell id="B0Yh4iV38J5QAPyJT024-42" value="" style="edgeStyle=orthogonalEdgeStyle;rounded=0;orthogonalLoop=1;jettySize=auto;html=1;" edge="1" parent="1" source="B0Yh4iV38J5QAPyJT024-43" target="B0Yh4iV38J5QAPyJT024-47">
          <mxGeometry relative="1" as="geometry" />
        </mxCell>
        <mxCell id="B0Yh4iV38J5QAPyJT024-43" value="Ingresar datos personales" style="whiteSpace=wrap;html=1;strokeWidth=2;" vertex="1" parent="1">
          <mxGeometry x="1120" y="785" width="120" height="60" as="geometry" />
        </mxCell>
        <mxCell id="B0Yh4iV38J5QAPyJT024-45" value="" style="edgeStyle=orthogonalEdgeStyle;rounded=0;orthogonalLoop=1;jettySize=auto;html=1;" edge="1" parent="1" source="B0Yh4iV38J5QAPyJT024-47" target="B0Yh4iV38J5QAPyJT024-49">
          <mxGeometry relative="1" as="geometry" />
        </mxCell>
        <mxCell id="B0Yh4iV38J5QAPyJT024-46" value="Si" style="edgeLabel;html=1;align=center;verticalAlign=middle;resizable=0;points=[];" vertex="1" connectable="0" parent="B0Yh4iV38J5QAPyJT024-45">
          <mxGeometry x="-0.2756" y="-1" relative="1" as="geometry">
            <mxPoint x="1" as="offset" />
          </mxGeometry>
        </mxCell>
        <mxCell id="B0Yh4iV38J5QAPyJT024-65" style="edgeStyle=orthogonalEdgeStyle;rounded=0;orthogonalLoop=1;jettySize=auto;html=1;entryX=0;entryY=0.5;entryDx=0;entryDy=0;" edge="1" parent="1" source="B0Yh4iV38J5QAPyJT024-47" target="B0Yh4iV38J5QAPyJT024-64">
          <mxGeometry relative="1" as="geometry" />
        </mxCell>
        <mxCell id="B0Yh4iV38J5QAPyJT024-66" value="NO" style="edgeLabel;html=1;align=center;verticalAlign=middle;resizable=0;points=[];" vertex="1" connectable="0" parent="B0Yh4iV38J5QAPyJT024-65">
          <mxGeometry x="-0.2686" y="-3" relative="1" as="geometry">
            <mxPoint y="-1" as="offset" />
          </mxGeometry>
        </mxCell>
        <mxCell id="B0Yh4iV38J5QAPyJT024-47" value="¿Los datos ingresados son correctos?" style="rhombus;whiteSpace=wrap;html=1;strokeWidth=2;" vertex="1" parent="1">
          <mxGeometry x="940" y="767.5" width="110" height="95" as="geometry" />
        </mxCell>
        <mxCell id="B0Yh4iV38J5QAPyJT024-48" value="" style="edgeStyle=orthogonalEdgeStyle;rounded=0;orthogonalLoop=1;jettySize=auto;html=1;" edge="1" parent="1" source="B0Yh4iV38J5QAPyJT024-49" target="B0Yh4iV38J5QAPyJT024-51">
          <mxGeometry relative="1" as="geometry" />
        </mxCell>
        <mxCell id="B0Yh4iV38J5QAPyJT024-49" value="Validación de datos" style="html=1;dashed=0;whiteSpace=wrap;" vertex="1" parent="1">
          <mxGeometry x="770" y="790" width="100" height="50" as="geometry" />
        </mxCell>
        <mxCell id="B0Yh4iV38J5QAPyJT024-62" value="" style="edgeStyle=orthogonalEdgeStyle;rounded=0;orthogonalLoop=1;jettySize=auto;html=1;" edge="1" parent="1" source="B0Yh4iV38J5QAPyJT024-51" target="B0Yh4iV38J5QAPyJT024-61">
          <mxGeometry relative="1" as="geometry" />
        </mxCell>
        <mxCell id="B0Yh4iV38J5QAPyJT024-51" value="Consulta de datos" style="strokeWidth=2;html=1;shape=mxgraph.flowchart.database;whiteSpace=wrap;" vertex="1" parent="1">
          <mxGeometry x="780" y="630" width="80" height="75" as="geometry" />
        </mxCell>
        <mxCell id="B0Yh4iV38J5QAPyJT024-61" value="Entra al Index" style="html=1;dashed=0;whiteSpace=wrap;shape=mxgraph.dfd.start" vertex="1" parent="1">
          <mxGeometry x="920" y="647.5" width="100" height="40" as="geometry" />
        </mxCell>
        <mxCell id="B0Yh4iV38J5QAPyJT024-63" value="¿Los datos del usuario están correctos?" style="strokeWidth=2;html=1;shape=mxgraph.flowchart.decision;whiteSpace=wrap;" vertex="1" parent="1">
          <mxGeometry x="2050" y="475" width="130" height="130" as="geometry" />
        </mxCell>
        <mxCell id="B0Yh4iV38J5QAPyJT024-67" style="edgeStyle=orthogonalEdgeStyle;rounded=0;orthogonalLoop=1;jettySize=auto;html=1;entryX=0.5;entryY=1;entryDx=0;entryDy=0;" edge="1" parent="1" source="B0Yh4iV38J5QAPyJT024-64" target="B0Yh4iV38J5QAPyJT024-43">
          <mxGeometry relative="1" as="geometry">
            <Array as="points">
              <mxPoint x="1180" y="925" />
            </Array>
          </mxGeometry>
        </mxCell>
        <mxCell id="B0Yh4iV38J5QAPyJT024-64" value="Completar/Corregir" style="html=1;dashed=0;whiteSpace=wrap;" vertex="1" parent="1">
          <mxGeometry x="1020" y="900" width="110" height="50" as="geometry" />
        </mxCell>
        <mxCell id="B0Yh4iV38J5QAPyJT024-69" style="edgeStyle=orthogonalEdgeStyle;rounded=0;orthogonalLoop=1;jettySize=auto;html=1;entryX=0.792;entryY=0.285;entryDx=0;entryDy=0;entryPerimeter=0;" edge="1" parent="1" source="B0Yh4iV38J5QAPyJT024-40" target="B0Yh4iV38J5QAPyJT024-2">
          <mxGeometry relative="1" as="geometry">
            <Array as="points">
              <mxPoint x="2480" y="720" />
              <mxPoint x="1435" y="720" />
            </Array>
          </mxGeometry>
        </mxCell>
        <mxCell id="B0Yh4iV38J5QAPyJT024-73" value="" style="edgeStyle=orthogonalEdgeStyle;rounded=0;orthogonalLoop=1;jettySize=auto;html=1;" edge="1" parent="1" source="B0Yh4iV38J5QAPyJT024-71" target="B0Yh4iV38J5QAPyJT024-72">
          <mxGeometry relative="1" as="geometry" />
        </mxCell>
        <mxCell id="B0Yh4iV38J5QAPyJT024-71" value="Inicio" style="html=1;dashed=0;whiteSpace=wrap;shape=mxgraph.dfd.start" vertex="1" parent="1">
          <mxGeometry x="770" y="1080" width="80" height="30" as="geometry" />
        </mxCell>
        <mxCell id="B0Yh4iV38J5QAPyJT024-75" value="" style="edgeStyle=orthogonalEdgeStyle;rounded=0;orthogonalLoop=1;jettySize=auto;html=1;" edge="1" parent="1" source="B0Yh4iV38J5QAPyJT024-72" target="B0Yh4iV38J5QAPyJT024-74">
          <mxGeometry relative="1" as="geometry" />
        </mxCell>
        <mxCell id="B0Yh4iV38J5QAPyJT024-72" value="Index" style="html=1;dashed=0;whiteSpace=wrap;" vertex="1" parent="1">
          <mxGeometry x="910" y="1070" width="100" height="50" as="geometry" />
        </mxCell>
        <mxCell id="B0Yh4iV38J5QAPyJT024-76" style="edgeStyle=orthogonalEdgeStyle;rounded=0;orthogonalLoop=1;jettySize=auto;html=1;entryX=0.5;entryY=0.5;entryDx=0;entryDy=-15;entryPerimeter=0;" edge="1" parent="1" source="B0Yh4iV38J5QAPyJT024-74" target="B0Yh4iV38J5QAPyJT024-77">
          <mxGeometry relative="1" as="geometry">
            <mxPoint x="1180" y="1290" as="targetPoint" />
          </mxGeometry>
        </mxCell>
        <mxCell id="B0Yh4iV38J5QAPyJT024-78" value="No" style="edgeLabel;html=1;align=center;verticalAlign=middle;resizable=0;points=[];" vertex="1" connectable="0" parent="B0Yh4iV38J5QAPyJT024-76">
          <mxGeometry x="-0.0222" y="-2" relative="1" as="geometry">
            <mxPoint y="-1" as="offset" />
          </mxGeometry>
        </mxCell>
        <mxCell id="B0Yh4iV38J5QAPyJT024-80" value="" style="edgeStyle=orthogonalEdgeStyle;rounded=0;orthogonalLoop=1;jettySize=auto;html=1;" edge="1" parent="1" source="B0Yh4iV38J5QAPyJT024-74" target="B0Yh4iV38J5QAPyJT024-79">
          <mxGeometry relative="1" as="geometry" />
        </mxCell>
        <mxCell id="B0Yh4iV38J5QAPyJT024-81" value="Si" style="edgeLabel;html=1;align=center;verticalAlign=middle;resizable=0;points=[];" vertex="1" connectable="0" parent="B0Yh4iV38J5QAPyJT024-80">
          <mxGeometry x="-0.1375" y="-2" relative="1" as="geometry">
            <mxPoint x="-1" as="offset" />
          </mxGeometry>
        </mxCell>
        <mxCell id="B0Yh4iV38J5QAPyJT024-74" value="¿El usuario desea agendar un turno?" style="strokeWidth=2;html=1;shape=mxgraph.flowchart.decision;whiteSpace=wrap;" vertex="1" parent="1">
          <mxGeometry x="1100" y="1037.5" width="160" height="115" as="geometry" />
        </mxCell>
        <mxCell id="B0Yh4iV38J5QAPyJT024-77" value="FIN" style="html=1;dashed=0;whiteSpace=wrap;shape=mxgraph.dfd.start" vertex="1" parent="1">
          <mxGeometry x="1140" y="1310" width="80" height="30" as="geometry" />
        </mxCell>
        <mxCell id="B0Yh4iV38J5QAPyJT024-83" value="" style="edgeStyle=orthogonalEdgeStyle;rounded=0;orthogonalLoop=1;jettySize=auto;html=1;" edge="1" parent="1" source="B0Yh4iV38J5QAPyJT024-79" target="B0Yh4iV38J5QAPyJT024-82">
          <mxGeometry relative="1" as="geometry" />
        </mxCell>
        <mxCell id="B0Yh4iV38J5QAPyJT024-79" value="Revisión de horarios y especialistas" style="html=1;dashed=0;whiteSpace=wrap;" vertex="1" parent="1">
          <mxGeometry x="1340" y="1070" width="100" height="50" as="geometry" />
        </mxCell>
        <mxCell id="B0Yh4iV38J5QAPyJT024-85" value="" style="edgeStyle=orthogonalEdgeStyle;rounded=0;orthogonalLoop=1;jettySize=auto;html=1;" edge="1" parent="1" source="B0Yh4iV38J5QAPyJT024-82" target="B0Yh4iV38J5QAPyJT024-84">
          <mxGeometry relative="1" as="geometry" />
        </mxCell>
        <mxCell id="B0Yh4iV38J5QAPyJT024-82" value="Confirmación" style="html=1;dashed=0;whiteSpace=wrap;" vertex="1" parent="1">
          <mxGeometry x="1525" y="1070" width="100" height="50" as="geometry" />
        </mxCell>
        <mxCell id="B0Yh4iV38J5QAPyJT024-86" style="edgeStyle=orthogonalEdgeStyle;rounded=0;orthogonalLoop=1;jettySize=auto;html=1;entryX=0.5;entryY=1;entryDx=0;entryDy=0;" edge="1" parent="1" source="B0Yh4iV38J5QAPyJT024-84" target="B0Yh4iV38J5QAPyJT024-79">
          <mxGeometry relative="1" as="geometry" />
        </mxCell>
        <mxCell id="B0Yh4iV38J5QAPyJT024-87" value="No" style="edgeLabel;html=1;align=center;verticalAlign=middle;resizable=0;points=[];" vertex="1" connectable="0" parent="B0Yh4iV38J5QAPyJT024-86">
          <mxGeometry x="-0.4347" y="-3" relative="1" as="geometry">
            <mxPoint x="-1" as="offset" />
          </mxGeometry>
        </mxCell>
        <mxCell id="B0Yh4iV38J5QAPyJT024-89" value="" style="edgeStyle=orthogonalEdgeStyle;rounded=0;orthogonalLoop=1;jettySize=auto;html=1;" edge="1" parent="1" source="B0Yh4iV38J5QAPyJT024-84" target="B0Yh4iV38J5QAPyJT024-88">
          <mxGeometry relative="1" as="geometry" />
        </mxCell>
        <mxCell id="B0Yh4iV38J5QAPyJT024-90" value="Si" style="edgeLabel;html=1;align=center;verticalAlign=middle;resizable=0;points=[];" vertex="1" connectable="0" parent="B0Yh4iV38J5QAPyJT024-89">
          <mxGeometry x="-0.0452" y="3" relative="1" as="geometry">
            <mxPoint x="-1" as="offset" />
          </mxGeometry>
        </mxCell>
        <mxCell id="B0Yh4iV38J5QAPyJT024-84" value="¿Desea indagar en la información de esta consulta?" style="strokeWidth=2;html=1;shape=mxgraph.flowchart.decision;whiteSpace=wrap;" vertex="1" parent="1">
          <mxGeometry x="1498.75" y="1180" width="152.5" height="120" as="geometry" />
        </mxCell>
        <mxCell id="B0Yh4iV38J5QAPyJT024-88" value="Info completa de la consulta" style="whiteSpace=wrap;html=1;strokeWidth=2;" vertex="1" parent="1">
          <mxGeometry x="1720" y="1210" width="120" height="60" as="geometry" />
        </mxCell>
        <mxCell id="B0Yh4iV38J5QAPyJT024-93" style="edgeStyle=orthogonalEdgeStyle;rounded=0;orthogonalLoop=1;jettySize=auto;html=1;entryX=0.5;entryY=1;entryDx=0;entryDy=0;exitX=0.5;exitY=1;exitDx=0;exitDy=0;exitPerimeter=0;" edge="1" parent="1" source="B0Yh4iV38J5QAPyJT024-91" target="B0Yh4iV38J5QAPyJT024-79">
          <mxGeometry relative="1" as="geometry">
            <Array as="points">
              <mxPoint x="2000" y="1320" />
              <mxPoint x="1390" y="1320" />
            </Array>
          </mxGeometry>
        </mxCell>
        <mxCell id="B0Yh4iV38J5QAPyJT024-94" value="No" style="edgeLabel;html=1;align=center;verticalAlign=middle;resizable=0;points=[];" vertex="1" connectable="0" parent="B0Yh4iV38J5QAPyJT024-93">
          <mxGeometry x="-0.3095" y="-1" relative="1" as="geometry">
            <mxPoint x="-1" as="offset" />
          </mxGeometry>
        </mxCell>
        <mxCell id="B0Yh4iV38J5QAPyJT024-96" value="" style="edgeStyle=orthogonalEdgeStyle;rounded=0;orthogonalLoop=1;jettySize=auto;html=1;entryX=0;entryY=0.5;entryDx=0;entryDy=0;" edge="1" parent="1" source="B0Yh4iV38J5QAPyJT024-91" target="B0Yh4iV38J5QAPyJT024-101">
          <mxGeometry relative="1" as="geometry">
            <mxPoint x="2210" y="1240" as="targetPoint" />
          </mxGeometry>
        </mxCell>
        <mxCell id="B0Yh4iV38J5QAPyJT024-91" value="¿Confirma el usuario el pago y la agendación de la consulta?" style="strokeWidth=2;html=1;shape=mxgraph.flowchart.decision;whiteSpace=wrap;" vertex="1" parent="1">
          <mxGeometry x="1890" y="1157.5" width="220" height="165" as="geometry" />
        </mxCell>
        <mxCell id="B0Yh4iV38J5QAPyJT024-92" style="edgeStyle=orthogonalEdgeStyle;rounded=0;orthogonalLoop=1;jettySize=auto;html=1;entryX=0;entryY=0.5;entryDx=0;entryDy=0;entryPerimeter=0;" edge="1" parent="1" source="B0Yh4iV38J5QAPyJT024-88" target="B0Yh4iV38J5QAPyJT024-91">
          <mxGeometry relative="1" as="geometry" />
        </mxCell>
        <mxCell id="B0Yh4iV38J5QAPyJT024-104" value="" style="edgeStyle=orthogonalEdgeStyle;rounded=0;orthogonalLoop=1;jettySize=auto;html=1;" edge="1" parent="1" source="B0Yh4iV38J5QAPyJT024-101" target="B0Yh4iV38J5QAPyJT024-103">
          <mxGeometry relative="1" as="geometry" />
        </mxCell>
        <mxCell id="B0Yh4iV38J5QAPyJT024-101" value="Método de pago" style="html=1;dashed=0;whiteSpace=wrap;" vertex="1" parent="1">
          <mxGeometry x="2280" y="1215" width="100" height="50" as="geometry" />
        </mxCell>
        <mxCell id="B0Yh4iV38J5QAPyJT024-107" value="" style="edgeStyle=orthogonalEdgeStyle;rounded=0;orthogonalLoop=1;jettySize=auto;html=1;" edge="1" parent="1" source="B0Yh4iV38J5QAPyJT024-102" target="B0Yh4iV38J5QAPyJT024-106">
          <mxGeometry relative="1" as="geometry" />
        </mxCell>
        <mxCell id="B0Yh4iV38J5QAPyJT024-102" value="Seleccionar método de pago" style="html=1;dashed=0;whiteSpace=wrap;" vertex="1" parent="1">
          <mxGeometry x="2700" y="1215" width="100" height="50" as="geometry" />
        </mxCell>
        <mxCell id="B0Yh4iV38J5QAPyJT024-105" value="" style="edgeStyle=orthogonalEdgeStyle;rounded=0;orthogonalLoop=1;jettySize=auto;html=1;" edge="1" parent="1" source="B0Yh4iV38J5QAPyJT024-103" target="B0Yh4iV38J5QAPyJT024-102">
          <mxGeometry relative="1" as="geometry" />
        </mxCell>
        <mxCell id="B0Yh4iV38J5QAPyJT024-108" value="Si" style="edgeLabel;html=1;align=center;verticalAlign=middle;resizable=0;points=[];" vertex="1" connectable="0" parent="B0Yh4iV38J5QAPyJT024-105">
          <mxGeometry x="-0.1143" y="-2" relative="1" as="geometry">
            <mxPoint as="offset" />
          </mxGeometry>
        </mxCell>
        <mxCell id="B0Yh4iV38J5QAPyJT024-114" value="" style="edgeStyle=orthogonalEdgeStyle;rounded=0;orthogonalLoop=1;jettySize=auto;html=1;" edge="1" parent="1" source="B0Yh4iV38J5QAPyJT024-103" target="B0Yh4iV38J5QAPyJT024-113">
          <mxGeometry relative="1" as="geometry" />
        </mxCell>
        <mxCell id="B0Yh4iV38J5QAPyJT024-103" value="¿El usuario posee o quiere agregar un método de pago?" style="strokeWidth=2;html=1;shape=mxgraph.flowchart.decision;whiteSpace=wrap;" vertex="1" parent="1">
          <mxGeometry x="2420" y="1162.5" width="230" height="155" as="geometry" />
        </mxCell>
        <mxCell id="B0Yh4iV38J5QAPyJT024-106" value="Comprobante" style="strokeWidth=2;html=1;shape=mxgraph.flowchart.document2;whiteSpace=wrap;size=0.25;" vertex="1" parent="1">
          <mxGeometry x="2880" y="1210" width="100" height="60" as="geometry" />
        </mxCell>
        <mxCell id="B0Yh4iV38J5QAPyJT024-109" value="Actualización de la base de datos" style="strokeWidth=2;html=1;shape=mxgraph.flowchart.database;whiteSpace=wrap;" vertex="1" parent="1">
          <mxGeometry x="3100" y="1190" width="130" height="100" as="geometry" />
        </mxCell>
        <mxCell id="B0Yh4iV38J5QAPyJT024-110" style="edgeStyle=orthogonalEdgeStyle;rounded=0;orthogonalLoop=1;jettySize=auto;html=1;entryX=0;entryY=0.5;entryDx=0;entryDy=0;entryPerimeter=0;" edge="1" parent="1" source="B0Yh4iV38J5QAPyJT024-106" target="B0Yh4iV38J5QAPyJT024-109">
          <mxGeometry relative="1" as="geometry" />
        </mxCell>
        <mxCell id="B0Yh4iV38J5QAPyJT024-111" value="Aviso de notificación" style="html=1;dashed=0;whiteSpace=wrap;shape=mxgraph.dfd.start" vertex="1" parent="1">
          <mxGeometry x="2890" y="1100" width="80" height="30" as="geometry" />
        </mxCell>
        <mxCell id="B0Yh4iV38J5QAPyJT024-112" style="edgeStyle=orthogonalEdgeStyle;rounded=0;orthogonalLoop=1;jettySize=auto;html=1;entryX=0.5;entryY=0.5;entryDx=0;entryDy=15;entryPerimeter=0;" edge="1" parent="1" source="B0Yh4iV38J5QAPyJT024-106" target="B0Yh4iV38J5QAPyJT024-111">
          <mxGeometry relative="1" as="geometry" />
        </mxCell>
        <mxCell id="B0Yh4iV38J5QAPyJT024-116" value="" style="edgeStyle=orthogonalEdgeStyle;rounded=0;orthogonalLoop=1;jettySize=auto;html=1;" edge="1" parent="1" source="B0Yh4iV38J5QAPyJT024-113" target="B0Yh4iV38J5QAPyJT024-115">
          <mxGeometry relative="1" as="geometry" />
        </mxCell>
        <mxCell id="B0Yh4iV38J5QAPyJT024-113" value="Agregar método de pago" style="html=1;dashed=0;whiteSpace=wrap;" vertex="1" parent="1">
          <mxGeometry x="2495" y="1380" width="100" height="50" as="geometry" />
        </mxCell>
        <mxCell id="B0Yh4iV38J5QAPyJT024-115" value="Carga de datos" style="html=1;dashed=0;whiteSpace=wrap;" vertex="1" parent="1">
          <mxGeometry x="2495" y="1540" width="100" height="50" as="geometry" />
        </mxCell>
        <mxCell id="B0Yh4iV38J5QAPyJT024-120" style="edgeStyle=orthogonalEdgeStyle;rounded=0;orthogonalLoop=1;jettySize=auto;html=1;entryX=0.5;entryY=1;entryDx=0;entryDy=0;" edge="1" parent="1" source="B0Yh4iV38J5QAPyJT024-117" target="B0Yh4iV38J5QAPyJT024-119">
          <mxGeometry relative="1" as="geometry" />
        </mxCell>
        <mxCell id="B0Yh4iV38J5QAPyJT024-123" value="No" style="edgeLabel;html=1;align=center;verticalAlign=middle;resizable=0;points=[];" vertex="1" connectable="0" parent="B0Yh4iV38J5QAPyJT024-120">
          <mxGeometry x="-0.5012" y="-2" relative="1" as="geometry">
            <mxPoint x="-1" as="offset" />
          </mxGeometry>
        </mxCell>
        <mxCell id="B0Yh4iV38J5QAPyJT024-125" style="edgeStyle=orthogonalEdgeStyle;rounded=0;orthogonalLoop=1;jettySize=auto;html=1;entryX=0;entryY=0.5;entryDx=0;entryDy=0;" edge="1" parent="1" source="B0Yh4iV38J5QAPyJT024-117" target="B0Yh4iV38J5QAPyJT024-124">
          <mxGeometry relative="1" as="geometry" />
        </mxCell>
        <mxCell id="B0Yh4iV38J5QAPyJT024-117" value="¿Los datos fueron puestos correctamente?" style="strokeWidth=2;html=1;shape=mxgraph.flowchart.decision;whiteSpace=wrap;" vertex="1" parent="1">
          <mxGeometry x="2462.5" y="1660" width="165" height="160" as="geometry" />
        </mxCell>
        <mxCell id="B0Yh4iV38J5QAPyJT024-121" style="edgeStyle=orthogonalEdgeStyle;rounded=0;orthogonalLoop=1;jettySize=auto;html=1;entryX=0;entryY=0.5;entryDx=0;entryDy=0;" edge="1" parent="1" source="B0Yh4iV38J5QAPyJT024-119" target="B0Yh4iV38J5QAPyJT024-115">
          <mxGeometry relative="1" as="geometry" />
        </mxCell>
        <mxCell id="B0Yh4iV38J5QAPyJT024-119" value="Corregir/Completar Datos" style="html=1;dashed=0;whiteSpace=wrap;" vertex="1" parent="1">
          <mxGeometry x="2290" y="1610" width="100" height="50" as="geometry" />
        </mxCell>
        <mxCell id="B0Yh4iV38J5QAPyJT024-122" style="edgeStyle=orthogonalEdgeStyle;rounded=0;orthogonalLoop=1;jettySize=auto;html=1;entryX=0.5;entryY=0;entryDx=0;entryDy=0;entryPerimeter=0;" edge="1" parent="1" source="B0Yh4iV38J5QAPyJT024-115" target="B0Yh4iV38J5QAPyJT024-117">
          <mxGeometry relative="1" as="geometry" />
        </mxCell>
        <mxCell id="B0Yh4iV38J5QAPyJT024-124" value="Pago agregado exitosamente" style="html=1;dashed=0;whiteSpace=wrap;" vertex="1" parent="1">
          <mxGeometry x="2750" y="1715" width="100" height="50" as="geometry" />
        </mxCell>
        <mxCell id="B0Yh4iV38J5QAPyJT024-126" value="Actualización de la base de datos" style="strokeWidth=2;html=1;shape=mxgraph.flowchart.database;whiteSpace=wrap;" vertex="1" parent="1">
          <mxGeometry x="2990" y="1687.5" width="140" height="105" as="geometry" />
        </mxCell>
        <mxCell id="B0Yh4iV38J5QAPyJT024-127" style="edgeStyle=orthogonalEdgeStyle;rounded=0;orthogonalLoop=1;jettySize=auto;html=1;entryX=0;entryY=0.5;entryDx=0;entryDy=0;entryPerimeter=0;" edge="1" parent="1" source="B0Yh4iV38J5QAPyJT024-124" target="B0Yh4iV38J5QAPyJT024-126">
          <mxGeometry relative="1" as="geometry" />
        </mxCell>
        <mxCell id="B0Yh4iV38J5QAPyJT024-129" style="edgeStyle=orthogonalEdgeStyle;rounded=0;orthogonalLoop=1;jettySize=auto;html=1;entryX=0.804;entryY=0.716;entryDx=0;entryDy=0;entryPerimeter=0;" edge="1" parent="1" source="B0Yh4iV38J5QAPyJT024-124" target="B0Yh4iV38J5QAPyJT024-103">
          <mxGeometry relative="1" as="geometry">
            <Array as="points">
              <mxPoint x="2800" y="1630" />
              <mxPoint x="2605" y="1630" />
            </Array>
          </mxGeometry>
        </mxCell>
      </root>
    </mxGraphModel>
  </diagram>
</mxfile>
